<?xml version="1.0" encoding="utf-8"?>
<!-- Generator: Adobe Illustrator 24.0.1, SVG Export Plug-In . SVG Version: 6.00 Build 0)  -->
<svg version="1.1" id="Layer_1" xmlns="http://www.w3.org/2000/svg" xmlns:xlink="http://www.w3.org/1999/xlink" x="0px" y="0px"
	 viewBox="0 0 1197.89 1198.14" style="enable-background:new 0 0 1197.89 1198.14;" xml:space="preserve">
<style type="text/css">
	.st0{fill:#EAECF2;}
	.st1{fill:#194F80;}
	.st2{fill:#00E3C1;}
</style>
<g>
	<path class="st0" d="M1034.09,1197.86H163.84c-90.09,0-163.8-73.71-163.8-163.8V163.8C0.03,73.71,73.74,0,163.84,0h870.25
		c90.09,0,163.8,73.71,163.8,163.8v870.25C1197.89,1124.15,1124.18,1197.86,1034.09,1197.86z"/>
	<path class="st1" d="M380.59,481.91c-14.43,10.74-92.93,62.39-231.9,31.02c-0.03,0-0.07,0-0.1-0.03
		c-2.57-0.79-108.39-32.15-148.14,9.54C0.17,522.71,0,523.12,0,523.53v476.84c0,0.86,0.72,1.57,1.57,1.54l385.38-4.72
		c0.86,0,1.54-0.72,1.54-1.57l-5.44-512.48C383.05,481.87,381.61,481.15,380.59,481.91z"/>
	<path class="st1" d="M796.03,483.82c0.03-0.75,0.58-1.37,1.33-1.47c8.62-1.2,60.81-5.2,146.22,57.5c0,0,160.07,108.36,251.36-90.67
		c1.58-3.26,2.94-5.79,2.94-5.79s-0.01,2.99,0,6.44v529.96c0,0.89-0.72,1.57-1.61,1.54l-420.71-14.54
		c-0.86-0.03-1.54-0.75-1.51-1.61L796.03,483.82z"/>
	<path class="st2" d="M1197.89,741.34v301.82c0,4.89-0.24,9.75-0.68,14.5c-7.35,78.5-73.95,140.48-154.29,140.48h-887.9
		c-77.51,0-142.24-58.89-153.33-133.45l-0.82-17.3l-0.83-17.4L0,977.04V623.17c128.13,92.83,253.35-35.44,253.35-35.44
		c77.46-68.31,146.15-42.29,146.15-42.29l5.03,364.32l35.33-5.88l329.76,5.3L752.15,699.2c0,0,65.65-11.12,196.4-63.62
		C1031.06,602.78,1128.08,628.64,1197.89,741.34z"/>
	<g>
		<g>
			<path class="st1" d="M722.22,510.84c-85.95,62.66-150.43,0-150.43,0s-52.71-54.32-85.34-64.44
				c-43.92-13.68-77.88,12.31-103.33,33.31c-17.85,14.74-40.57,23.16-51.24,26.54c-0.72,0.24-1.16,0.92-1.06,1.68l60.88,447.7
				c0.07,0.51,0.41,0.96,0.89,1.2c186.86,89.17,358.05,3.18,370.22-3.22c0.44-0.24,0.75-0.65,0.82-1.13l69.74-465.28
				c0.1-0.75-0.34-1.5-1.09-1.71C779.95,470.04,722.22,510.84,722.22,510.84z"/>
		</g>
	</g>
	<g>
		<g>
			
				<image style="overflow:visible;opacity:0.26;" width="515" height="488" xlink:href="1DAACDFB28E9258B.png"  transform="matrix(1 0 0 1 311.0811 511.9978)">
			</image>
			<g>
				<g>
					<path class="st2" d="M514.43,630.15c-89.51-103.95-157.54-95.05-187.13-83.25c-0.65,0.27-1.06,0.96-0.96,1.68l59.34,401.38
						c0.07,0.51,0.38,0.92,0.86,1.16c210.73,104.94,379.6,0.27,390.92-7.01c0.38-0.24,0.65-0.65,0.68-1.09l32.15-257.35
						c0.14-1.13-0.96-2.02-2.02-1.64c-19.26,6.57-49.36,15.05-84.28,18.88C658.19,710.08,575.11,700.64,514.43,630.15z"/>
				</g>
			</g>
		</g>
	</g>
	<g>
		<path d="M742.57,366.43c10.91-39.2,22.03-78.36,32.73-117.63c3.18-11.66,10.12-18.03,21.72-21.21
			c35.61-9.71,71.08-20.01,106.58-30.13c12.21-3.49,15.08-9.54,10.19-21.62c-3.59-8.89-7.46-17.68-11.15-26.54
			c-4.75-11.39-9.13-13.65-21-9.95c-48.02,14.88-96.01,29.89-144.07,44.81c-9.65,3.01-15.7,8.86-18.47,18.88
			c-14.71,52.95-30,105.72-44.43,158.74c-0.65,2.43-1.44,4.28-2.39,5.78h70.05C742.4,367.19,742.47,366.81,742.57,366.43z"/>
		<path d="M842.48,367.66c-86.57-0.03-173.14,0-259.74,0c0,0.03,0,0.07,0,0.14c-87.6,0-175.16-0.03-262.75,0.03
			c-22.64,0.03-27.74,6.19-24.35,28.49c2.94,19.39,5.85,38.79,8.62,58.22c26.2,183.26,52.26,366.53,78.63,549.79
			c5.68,39.51,36.53,67.69,76.62,68.13c82.02,0.89,164.11,0.92,246.13,0c40.09-0.44,70.8-28.56,76.69-68.13
			c10.81-73.13,20.86-146.36,31.3-219.52c18.33-128.5,36.6-257.04,55.17-385.51C872.71,372.11,869.57,367.66,842.48,367.66z
			 M748.14,1012.58c-7.87,21.17-25.72,29.86-47.89,29.89c-35.74,0.07-71.45,0.07-107.2,0.07c-39.27,0.03-78.5,0.21-117.76,0
			c-44.09-0.24-58.56-13.1-64.37-56.47c-0.86-6.36-1.54-12.72-2.7-22.34c116.4,59.28,230.95,59.79,345.43,1.47
			c6.64-2.98,4.89-3.83,3.83,2.29C754.51,982.58,753.44,998.35,748.14,1012.58z M835.19,419.93c-3.45,20.83-6.46,41.73-8.93,62.7
			c-0.41,3.56-14.74,102.41-18.68,130.18c-13.99,98.58-28.25,197.08-41.87,295.69c-1.47,10.6-5.54,17.34-14.71,22.54
			c-112.46,63.41-224.82,63.76-336.87-0.62c-6.02-3.45-12.38-11.36-13.34-17.92c-13.58-92.28-40.36-276.92-40.36-276.92
			l-20.69-152.07c-4.48-26.27-7.73-52.78-11.25-79.18c-0.17-1.3-1.23-5.2,1.98-6.29c5.88,0,330.38-1.2,486.24,0.03
			C842.68,398.21,839.19,395.61,835.19,419.93z"/>
	</g>
</g>
</svg>
